<svg height="4174" width="720" xmlns="http://www.w3.org/2000/svg">
<rect height="4174" fill="#555" width="720"></rect>
<text fill="#7f7" font-family="Courier New" font-size="12" xml:space="preserve">
<tspan x="10" y="26">9 megabytes</tspan>
<tspan x="10" y="42">└─┬ napa@2.3.0 </tspan>
<tspan x="10" y="58">  ├─┬ download@4.4.3 </tspan>
<tspan x="10" y="74">  │ ├─┬ caw@1.2.0 </tspan>
<tspan x="10" y="90">  │ │ ├─┬ get-proxy@1.1.0 </tspan>
<tspan x="10" y="106">  │ │ │ └─┬ rc@1.2.1 </tspan>
<tspan x="10" y="122">  │ │ │   ├── deep-extend@0.4.1 </tspan>
<tspan x="10" y="138">  │ │ │   ├── ini@1.3.4 </tspan>
<tspan x="10" y="154">  │ │ │   └── strip-json-comments@2.0.1 </tspan>
<tspan x="10" y="170">  │ │ ├── is-obj@1.0.1 </tspan>
<tspan x="10" y="186">  │ │ ├── object-assign@3.0.0 </tspan>
<tspan x="10" y="202">  │ │ └── tunnel-agent@0.4.3 </tspan>
<tspan x="10" y="218">  │ ├─┬ concat-stream@1.6.0 </tspan>
<tspan x="10" y="234">  │ │ ├── inherits@2.0.3 </tspan>
<tspan x="10" y="250">  │ │ └── typedarray@0.0.6 </tspan>
<tspan x="10" y="266">  │ ├─┬ each-async@1.1.1 </tspan>
<tspan x="10" y="282">  │ │ ├── onetime@1.1.0 </tspan>
<tspan x="10" y="298">  │ │ └── set-immediate-shim@1.0.1 </tspan>
<tspan x="10" y="314">  │ ├─┬ filenamify@1.2.1 </tspan>
<tspan x="10" y="330">  │ │ ├── filename-reserved-regex@1.0.0 </tspan>
<tspan x="10" y="346">  │ │ ├─┬ strip-outer@1.0.0 </tspan>
<tspan x="10" y="362">  │ │ │ └── escape-string-regexp@1.0.5 </tspan>
<tspan x="10" y="378">  │ │ └── trim-repeated@1.0.0 </tspan>
<tspan x="10" y="394">  │ ├─┬ got@5.7.1 </tspan>
<tspan x="10" y="410">  │ │ ├─┬ create-error-class@3.0.2 </tspan>
<tspan x="10" y="426">  │ │ │ └── capture-stack-trace@1.0.0 </tspan>
<tspan x="10" y="442">  │ │ ├── duplexer2@0.1.4 </tspan>
<tspan x="10" y="458">  │ │ ├── is-redirect@1.0.0 </tspan>
<tspan x="10" y="474">  │ │ ├── is-retry-allowed@1.1.0 </tspan>
<tspan x="10" y="490">  │ │ ├── is-stream@1.1.0 </tspan>
<tspan x="10" y="506">  │ │ ├── lowercase-keys@1.0.0 </tspan>
<tspan x="10" y="522">  │ │ ├── node-status-codes@1.0.0 </tspan>
<tspan x="10" y="538">  │ │ ├── timed-out@3.1.3 </tspan>
<tspan x="10" y="554">  │ │ ├── unzip-response@1.0.2 </tspan>
<tspan x="10" y="570">  │ │ └─┬ url-parse-lax@1.0.0 </tspan>
<tspan x="10" y="586">  │ │   └── prepend-http@1.0.4 </tspan>
<tspan x="10" y="602">  │ ├─┬ gulp-decompress@1.2.0 </tspan>
<tspan x="10" y="618">  │ │ ├─┬ archive-type@3.2.0 </tspan>
<tspan x="10" y="634">  │ │ │ └── file-type@3.9.0 </tspan>
<tspan x="10" y="650">  │ │ ├─┬ decompress@3.0.0 </tspan>
<tspan x="10" y="666">  │ │ │ ├─┬ buffer-to-vinyl@1.1.0 </tspan>
<tspan x="10" y="682">  │ │ │ │ └── uuid@2.0.3 </tspan>
<tspan x="10" y="698">  │ │ │ ├─┬ decompress-tar@3.1.0 </tspan>
<tspan x="10" y="714">  │ │ │ │ ├── is-tar@1.0.0 </tspan>
<tspan x="10" y="730">  │ │ │ │ ├── object-assign@2.1.1 </tspan>
<tspan x="10" y="746">  │ │ │ │ ├─┬ strip-dirs@1.1.1 </tspan>
<tspan x="10" y="762">  │ │ │ │ │ ├── get-stdin@4.0.1 </tspan>
<tspan x="10" y="778">  │ │ │ │ │ ├─┬ is-absolute@0.1.7 </tspan>
<tspan x="10" y="794">  │ │ │ │ │ │ └── is-relative@0.1.3 </tspan>
<tspan x="10" y="810">  │ │ │ │ │ ├── is-natural-number@2.1.1 </tspan>
<tspan x="10" y="826">  │ │ │ │ │ └── sum-up@1.0.3 </tspan>
<tspan x="10" y="842">  │ │ │ │ ├─┬ tar-stream@1.5.2 </tspan>
<tspan x="10" y="858">  │ │ │ │ │ ├── bl@1.2.0 </tspan>
<tspan x="10" y="874">  │ │ │ │ │ └── end-of-stream@1.4.0 </tspan>
<tspan x="10" y="890">  │ │ │ │ └─┬ vinyl@0.4.6 </tspan>
<tspan x="10" y="906">  │ │ │ │   └── clone@0.2.0 </tspan>
<tspan x="10" y="922">  │ │ │ ├─┬ decompress-tarbz2@3.1.0 </tspan>
<tspan x="10" y="938">  │ │ │ │ ├── is-bzip2@1.0.0 </tspan>
<tspan x="10" y="954">  │ │ │ │ ├── object-assign@2.1.1 </tspan>
<tspan x="10" y="970">  │ │ │ │ ├─┬ seek-bzip@1.0.5 </tspan>
<tspan x="10" y="986">  │ │ │ │ │ └─┬ commander@2.8.1 </tspan>
<tspan x="10" y="1002">  │ │ │ │ │   └── graceful-readlink@1.0.1 </tspan>
<tspan x="10" y="1018">  │ │ │ │ └─┬ vinyl@0.4.6 </tspan>
<tspan x="10" y="1034">  │ │ │ │   └── clone@0.2.0 </tspan>
<tspan x="10" y="1050">  │ │ │ ├─┬ decompress-targz@3.1.0 </tspan>
<tspan x="10" y="1066">  │ │ │ │ ├── is-gzip@1.0.0 </tspan>
<tspan x="10" y="1082">  │ │ │ │ ├── object-assign@2.1.1 </tspan>
<tspan x="10" y="1098">  │ │ │ │ └─┬ vinyl@0.4.6 </tspan>
<tspan x="10" y="1114">  │ │ │ │   └── clone@0.2.0 </tspan>
<tspan x="10" y="1130">  │ │ │ ├─┬ decompress-unzip@3.4.0 </tspan>
<tspan x="10" y="1146">  │ │ │ │ ├── is-zip@1.0.0 </tspan>
<tspan x="10" y="1162">  │ │ │ │ ├── stat-mode@0.2.2 </tspan>
<tspan x="10" y="1178">  │ │ │ │ ├── through2@2.0.3 </tspan>
<tspan x="10" y="1194">  │ │ │ │ └─┬ yauzl@2.7.0 </tspan>
<tspan x="10" y="1210">  │ │ │ │   ├── buffer-crc32@0.2.13 </tspan>
<tspan x="10" y="1226">  │ │ │ │   └─┬ fd-slicer@1.0.1 </tspan>
<tspan x="10" y="1242">  │ │ │ │     └── pend@1.2.0 </tspan>
<tspan x="10" y="1258">  │ │ │ └── vinyl-assign@1.2.1 </tspan>
<tspan x="10" y="1274">  │ │ └─┬ gulp-util@3.0.8 </tspan>
<tspan x="10" y="1290">  │ │   ├── array-differ@1.0.0 </tspan>
<tspan x="10" y="1306">  │ │   ├── array-uniq@1.0.3 </tspan>
<tspan x="10" y="1322">  │ │   ├── beeper@1.1.1 </tspan>
<tspan x="10" y="1338">  │ │   ├─┬ chalk@1.1.3 </tspan>
<tspan x="10" y="1354">  │ │   │ ├── ansi-styles@2.2.1 </tspan>
<tspan x="10" y="1370">  │ │   │ ├─┬ has-ansi@2.0.0 </tspan>
<tspan x="10" y="1386">  │ │   │ │ └── ansi-regex@2.1.1 </tspan>
<tspan x="10" y="1402">  │ │   │ ├── strip-ansi@3.0.1 </tspan>
<tspan x="10" y="1418">  │ │   │ └── supports-color@2.0.0 </tspan>
<tspan x="10" y="1434">  │ │   ├── dateformat@2.0.0 </tspan>
<tspan x="10" y="1450">  │ │   ├─┬ fancy-log@1.3.0 </tspan>
<tspan x="10" y="1466">  │ │   │ └── time-stamp@1.0.1 </tspan>
<tspan x="10" y="1482">  │ │   ├─┬ gulplog@1.0.0 </tspan>
<tspan x="10" y="1498">  │ │   │ └── glogg@1.0.0 </tspan>
<tspan x="10" y="1514">  │ │   ├─┬ has-gulplog@0.1.0 </tspan>
<tspan x="10" y="1530">  │ │   │ └── sparkles@1.0.0 </tspan>
<tspan x="10" y="1546">  │ │   ├── lodash._reescape@3.0.0 </tspan>
<tspan x="10" y="1562">  │ │   ├── lodash._reevaluate@3.0.0 </tspan>
<tspan x="10" y="1578">  │ │   ├── lodash._reinterpolate@3.0.0 </tspan>
<tspan x="10" y="1594">  │ │   ├─┬ lodash.template@3.6.2 </tspan>
<tspan x="10" y="1610">  │ │   │ ├── lodash._basecopy@3.0.1 </tspan>
<tspan x="10" y="1626">  │ │   │ ├── lodash._basetostring@3.0.1 </tspan>
<tspan x="10" y="1642">  │ │   │ ├── lodash._basevalues@3.0.0 </tspan>
<tspan x="10" y="1658">  │ │   │ ├── lodash._isiterateecall@3.0.9 </tspan>
<tspan x="10" y="1674">  │ │   │ ├─┬ lodash.escape@3.2.0 </tspan>
<tspan x="10" y="1690">  │ │   │ │ └── lodash._root@3.0.1 </tspan>
<tspan x="10" y="1706">  │ │   │ ├─┬ lodash.keys@3.1.2 </tspan>
<tspan x="10" y="1722">  │ │   │ │ ├── lodash._getnative@3.9.1 </tspan>
<tspan x="10" y="1738">  │ │   │ │ ├── lodash.isarguments@3.1.0 </tspan>
<tspan x="10" y="1754">  │ │   │ │ └── lodash.isarray@3.0.4 </tspan>
<tspan x="10" y="1770">  │ │   │ ├── lodash.restparam@3.6.1 </tspan>
<tspan x="10" y="1786">  │ │   │ └── lodash.templatesettings@3.1.1 </tspan>
<tspan x="10" y="1802">  │ │   ├─┬ multipipe@0.1.2 </tspan>
<tspan x="10" y="1818">  │ │   │ └─┬ duplexer2@0.0.2 </tspan>
<tspan x="10" y="1834">  │ │   │   └─┬ readable-stream@1.1.14 </tspan>
<tspan x="10" y="1850">  │ │   │     └── isarray@0.0.1 </tspan>
<tspan x="10" y="1866">  │ │   ├── object-assign@3.0.0 </tspan>
<tspan x="10" y="1882">  │ │   ├── through2@2.0.3 </tspan>
<tspan x="10" y="1898">  │ │   └── vinyl@0.5.3 </tspan>
<tspan x="10" y="1914">  │ ├── gulp-rename@1.2.2 </tspan>
<tspan x="10" y="1930">  │ ├── is-url@1.2.2 </tspan>
<tspan x="10" y="1946">  │ ├── object-assign@4.1.1 </tspan>
<tspan x="10" y="1962">  │ ├── read-all-stream@3.1.0 </tspan>
<tspan x="10" y="1978">  │ ├─┬ readable-stream@2.2.6 </tspan>
<tspan x="10" y="1994">  │ │ ├── buffer-shims@1.0.0 </tspan>
<tspan x="10" y="2010">  │ │ ├── core-util-is@1.0.2 </tspan>
<tspan x="10" y="2026">  │ │ ├── isarray@1.0.0 </tspan>
<tspan x="10" y="2042">  │ │ ├── process-nextick-args@1.0.7 </tspan>
<tspan x="10" y="2058">  │ │ ├── string_decoder@0.10.31 </tspan>
<tspan x="10" y="2074">  │ │ └── util-deprecate@1.0.2 </tspan>
<tspan x="10" y="2090">  │ ├── stream-combiner2@1.1.1 </tspan>
<tspan x="10" y="2106">  │ ├─┬ vinyl@1.2.0 </tspan>
<tspan x="10" y="2122">  │ │ ├── clone@1.0.2 </tspan>
<tspan x="10" y="2138">  │ │ ├── clone-stats@0.0.1 </tspan>
<tspan x="10" y="2154">  │ │ └── replace-ext@0.0.1 </tspan>
<tspan x="10" y="2170">  │ ├─┬ vinyl-fs@2.4.4 </tspan>
<tspan x="10" y="2186">  │ │ ├─┬ duplexify@3.5.0 </tspan>
<tspan x="10" y="2202">  │ │ │ ├─┬ end-of-stream@1.0.0 </tspan>
<tspan x="10" y="2218">  │ │ │ │ └── once@1.3.3 </tspan>
<tspan x="10" y="2234">  │ │ │ └── stream-shift@1.0.0 </tspan>
<tspan x="10" y="2250">  │ │ ├─┬ glob-stream@5.3.5 </tspan>
<tspan x="10" y="2266">  │ │ │ ├── glob@5.0.15 </tspan>
<tspan x="10" y="2282">  │ │ │ ├─┬ glob-parent@3.1.0 </tspan>
<tspan x="10" y="2298">  │ │ │ │ ├─┬ is-glob@3.1.0 </tspan>
<tspan x="10" y="2314">  │ │ │ │ │ └── is-extglob@2.1.1 </tspan>
<tspan x="10" y="2330">  │ │ │ │ └── path-dirname@1.0.2 </tspan>
<tspan x="10" y="2346">  │ │ │ ├─┬ micromatch@2.3.11 </tspan>
<tspan x="10" y="2362">  │ │ │ │ ├─┬ arr-diff@2.0.0 </tspan>
<tspan x="10" y="2378">  │ │ │ │ │ └── arr-flatten@1.0.1 </tspan>
<tspan x="10" y="2394">  │ │ │ │ ├── array-unique@0.2.1 </tspan>
<tspan x="10" y="2410">  │ │ │ │ ├─┬ braces@1.8.5 </tspan>
<tspan x="10" y="2426">  │ │ │ │ │ ├─┬ expand-range@1.8.2 </tspan>
<tspan x="10" y="2442">  │ │ │ │ │ │ └─┬ fill-range@2.2.3 </tspan>
<tspan x="10" y="2458">  │ │ │ │ │ │   ├── is-number@2.1.0 </tspan>
<tspan x="10" y="2474">  │ │ │ │ │ │   ├── isobject@2.1.0 </tspan>
<tspan x="10" y="2490">  │ │ │ │ │ │   ├── randomatic@1.1.6 </tspan>
<tspan x="10" y="2506">  │ │ │ │ │ │   └── repeat-string@1.6.1 </tspan>
<tspan x="10" y="2522">  │ │ │ │ │ ├── preserve@0.2.0 </tspan>
<tspan x="10" y="2538">  │ │ │ │ │ └── repeat-element@1.1.2 </tspan>
<tspan x="10" y="2554">  │ │ │ │ ├─┬ expand-brackets@0.1.5 </tspan>
<tspan x="10" y="2570">  │ │ │ │ │ └── is-posix-bracket@0.1.1 </tspan>
<tspan x="10" y="2586">  │ │ │ │ ├─┬ extglob@0.3.2 </tspan>
<tspan x="10" y="2602">  │ │ │ │ │ └── is-extglob@1.0.0 </tspan>
<tspan x="10" y="2618">  │ │ │ │ ├── filename-regex@2.0.0 </tspan>
<tspan x="10" y="2634">  │ │ │ │ ├── is-extglob@1.0.0 </tspan>
<tspan x="10" y="2650">  │ │ │ │ ├── is-glob@2.0.1 </tspan>
<tspan x="10" y="2666">  │ │ │ │ ├─┬ kind-of@3.1.0 </tspan>
<tspan x="10" y="2682">  │ │ │ │ │ └── is-buffer@1.1.5 </tspan>
<tspan x="10" y="2698">  │ │ │ │ ├─┬ normalize-path@2.1.1 </tspan>
<tspan x="10" y="2714">  │ │ │ │ │ └── remove-trailing-separator@1.0.1 </tspan>
<tspan x="10" y="2730">  │ │ │ │ ├─┬ object.omit@2.0.1 </tspan>
<tspan x="10" y="2746">  │ │ │ │ │ ├─┬ for-own@0.1.5 </tspan>
<tspan x="10" y="2762">  │ │ │ │ │ │ └── for-in@1.0.2 </tspan>
<tspan x="10" y="2778">  │ │ │ │ │ └── is-extendable@0.1.1 </tspan>
<tspan x="10" y="2794">  │ │ │ │ ├─┬ parse-glob@3.0.4 </tspan>
<tspan x="10" y="2810">  │ │ │ │ │ ├─┬ glob-base@0.3.0 </tspan>
<tspan x="10" y="2826">  │ │ │ │ │ │ ├── glob-parent@2.0.0 </tspan>
<tspan x="10" y="2842">  │ │ │ │ │ │ └─┬ is-glob@2.0.1 </tspan>
<tspan x="10" y="2858">  │ │ │ │ │ │   └── is-extglob@1.0.0 </tspan>
<tspan x="10" y="2874">  │ │ │ │ │ ├── is-dotfile@1.0.2 </tspan>
<tspan x="10" y="2890">  │ │ │ │ │ ├── is-extglob@1.0.0 </tspan>
<tspan x="10" y="2906">  │ │ │ │ │ └── is-glob@2.0.1 </tspan>
<tspan x="10" y="2922">  │ │ │ │ └─┬ regex-cache@0.4.3 </tspan>
<tspan x="10" y="2938">  │ │ │ │   ├── is-equal-shallow@0.1.3 </tspan>
<tspan x="10" y="2954">  │ │ │ │   └── is-primitive@2.0.0 </tspan>
<tspan x="10" y="2970">  │ │ │ ├── ordered-read-streams@0.3.0 </tspan>
<tspan x="10" y="2986">  │ │ │ ├─┬ through2@0.6.5 </tspan>
<tspan x="10" y="3002">  │ │ │ │ └─┬ readable-stream@1.0.34 </tspan>
<tspan x="10" y="3018">  │ │ │ │   └── isarray@0.0.1 </tspan>
<tspan x="10" y="3034">  │ │ │ ├─┬ to-absolute-glob@0.1.1 </tspan>
<tspan x="10" y="3050">  │ │ │ │ └── extend-shallow@2.0.1 </tspan>
<tspan x="10" y="3066">  │ │ │ └─┬ unique-stream@2.2.1 </tspan>
<tspan x="10" y="3082">  │ │ │   └─┬ json-stable-stringify@1.0.1 </tspan>
<tspan x="10" y="3098">  │ │ │     └── jsonify@0.0.0 </tspan>
<tspan x="10" y="3114">  │ │ ├─┬ gulp-sourcemaps@1.6.0 </tspan>
<tspan x="10" y="3130">  │ │ │ ├── convert-source-map@1.5.0 </tspan>
<tspan x="10" y="3146">  │ │ │ └── through2@2.0.3 </tspan>
<tspan x="10" y="3162">  │ │ ├── is-valid-glob@0.3.0 </tspan>
<tspan x="10" y="3178">  │ │ ├── lazystream@1.0.0 </tspan>
<tspan x="10" y="3194">  │ │ ├── lodash.isequal@4.5.0 </tspan>
<tspan x="10" y="3210">  │ │ ├── merge-stream@1.0.1 </tspan>
<tspan x="10" y="3226">  │ │ ├─┬ strip-bom-stream@1.0.0 </tspan>
<tspan x="10" y="3242">  │ │ │ └── first-chunk-stream@1.0.0 </tspan>
<tspan x="10" y="3258">  │ │ ├── through2@2.0.3 </tspan>
<tspan x="10" y="3274">  │ │ ├─┬ through2-filter@2.0.0 </tspan>
<tspan x="10" y="3290">  │ │ │ ├── through2@2.0.3 </tspan>
<tspan x="10" y="3306">  │ │ │ └── xtend@4.0.1 </tspan>
<tspan x="10" y="3322">  │ │ └── vali-date@1.0.0 </tspan>
<tspan x="10" y="3338">  │ └─┬ ware@1.3.0 </tspan>
<tspan x="10" y="3354">  │   └─┬ wrap-fn@0.1.5 </tspan>
<tspan x="10" y="3370">  │     └── co@3.1.0 </tspan>
<tspan x="10" y="3386">  ├── extend@3.0.0 </tspan>
<tspan x="10" y="3402">  ├─┬ load-json-file@1.1.0 </tspan>
<tspan x="10" y="3418">  │ ├── graceful-fs@4.1.11 </tspan>
<tspan x="10" y="3434">  │ ├─┬ parse-json@2.2.0 </tspan>
<tspan x="10" y="3450">  │ │ └─┬ error-ex@1.3.1 </tspan>
<tspan x="10" y="3466">  │ │   └── is-arrayish@0.2.1 </tspan>
<tspan x="10" y="3482">  │ ├── pify@2.3.0 </tspan>
<tspan x="10" y="3498">  │ ├─┬ pinkie-promise@2.0.1 </tspan>
<tspan x="10" y="3514">  │ │ └── pinkie@2.0.4 </tspan>
<tspan x="10" y="3530">  │ └─┬ strip-bom@2.0.0 </tspan>
<tspan x="10" y="3546">  │   └── is-utf8@0.2.1 </tspan>
<tspan x="10" y="3562">  ├── minimist@1.2.0 </tspan>
<tspan x="10" y="3578">  ├─┬ mkdirp@0.5.1 </tspan>
<tspan x="10" y="3594">  │ └── minimist@0.0.8 </tspan>
<tspan x="10" y="3610">  ├── npm-cache-filename@1.0.2 </tspan>
<tspan x="10" y="3626">  ├─┬ npmlog@2.0.4 </tspan>
<tspan x="10" y="3642">  │ ├── ansi@0.3.1 </tspan>
<tspan x="10" y="3658">  │ ├─┬ are-we-there-yet@1.1.2 </tspan>
<tspan x="10" y="3674">  │ │ └── delegates@1.0.0 </tspan>
<tspan x="10" y="3690">  │ └─┬ gauge@1.2.7 </tspan>
<tspan x="10" y="3706">  │   ├── has-unicode@2.0.1 </tspan>
<tspan x="10" y="3722">  │   ├── lodash.pad@4.5.1 </tspan>
<tspan x="10" y="3738">  │   ├── lodash.padend@4.6.1 </tspan>
<tspan x="10" y="3754">  │   └── lodash.padstart@4.6.1 </tspan>
<tspan x="10" y="3770">  ├─┬ rimraf@2.6.1 </tspan>
<tspan x="10" y="3786">  │ └─┬ glob@7.1.1 </tspan>
<tspan x="10" y="3802">  │   ├── fs.realpath@1.0.0 </tspan>
<tspan x="10" y="3818">  │   ├── inflight@1.0.6 </tspan>
<tspan x="10" y="3834">  │   ├─┬ minimatch@3.0.3 </tspan>
<tspan x="10" y="3850">  │   │ └─┬ brace-expansion@1.1.6 </tspan>
<tspan x="10" y="3866">  │   │   ├── balanced-match@0.4.2 </tspan>
<tspan x="10" y="3882">  │   │   └── concat-map@0.0.1 </tspan>
<tspan x="10" y="3898">  │   └── path-is-absolute@1.0.1 </tspan>
<tspan x="10" y="3914">  ├─┬ tar-pack@3.4.0 </tspan>
<tspan x="10" y="3930">  │ ├─┬ debug@2.6.3 </tspan>
<tspan x="10" y="3946">  │ │ └── ms@0.7.2 </tspan>
<tspan x="10" y="3962">  │ ├── fstream@1.0.11 </tspan>
<tspan x="10" y="3978">  │ ├── fstream-ignore@1.0.5 </tspan>
<tspan x="10" y="3994">  │ ├─┬ once@1.4.0 </tspan>
<tspan x="10" y="4010">  │ │ └── wrappy@1.0.2 </tspan>
<tspan x="10" y="4026">  │ ├─┬ tar@2.2.1 </tspan>
<tspan x="10" y="4042">  │ │ └── block-stream@0.0.9 </tspan>
<tspan x="10" y="4058">  │ └── uid-number@0.0.6 </tspan>
<tspan x="10" y="4074">  └─┬ write-json-file@1.2.0 </tspan>
<tspan x="10" y="4090">    ├─┬ sort-keys@1.1.2 </tspan>
<tspan x="10" y="4106">    │ └── is-plain-obj@1.1.0 </tspan>
<tspan x="10" y="4122">    └─┬ write-file-atomic@1.3.1 </tspan>
<tspan x="10" y="4138">      ├── imurmurhash@0.1.4 </tspan>
<tspan x="10" y="4154">      └── slide@1.1.6</tspan>
</text>
</svg>
